<?xml version="1.0" standalone="no"?>
<!DOCTYPE svg PUBLIC "-//W3C//DTD SVG 20010904//EN"
 "http://www.w3.org/TR/2001/REC-SVG-20010904/DTD/svg10.dtd">
<svg version="1.0" xmlns="http://www.w3.org/2000/svg"
 width="450.000000pt" height="450.000000pt" viewBox="0 0 450.000000 450.000000"
 preserveAspectRatio="xMidYMid meet">
<metadata>
Created by potrace 1.14, written by Peter Selinger 2001-2017
</metadata>
<g transform="translate(0.000000,450.000000) scale(0.100000,-0.100000)"
fill="#000000" stroke="none">
<path d="M3315 4456 c-45 -22 -128 -63 -185 -90 -58 -27 -175 -83 -260 -124
-231 -111 -277 -132 -288 -132 -17 0 -86 -61 -99 -88 -7 -15 -35 -88 -61 -162
-41 -113 -52 -135 -68 -133 -10 2 -37 6 -59 10 -56 9 -87 7 -140 -8 -39 -12
-46 -18 -51 -46 -3 -18 -9 -33 -13 -33 -3 0 -5 -20 -3 -45 4 -42 7 -47 41 -61
20 -9 43 -17 51 -20 8 -2 36 -11 62 -20 l46 -16 -18 -46 c-10 -26 -36 -92 -56
-148 l-39 -101 -107 1 c-60 0 -108 4 -108 9 0 4 16 56 36 115 30 91 35 119 35
197 0 130 -10 185 -47 286 -54 144 -110 196 -225 206 -82 8 -154 -29 -206
-104 -20 -29 -39 -53 -42 -54 -3 0 -26 -2 -50 -4 -23 -2 -46 -6 -49 -9 -12
-13 -32 19 -32 50 0 39 -2 40 -35 18 l-25 -16 4 48 c2 27 7 61 11 77 4 16 3
27 -3 27 -12 0 -19 -18 -27 -80 -3 -25 -8 -54 -9 -65 -2 -11 -10 -21 -19 -23
-28 -6 -130 75 -154 122 -20 39 -35 21 -22 -27 5 -20 14 -37 19 -37 6 0 10 -4
10 -9 0 -18 -55 6 -67 30 -10 18 -13 20 -13 6 0 -9 11 -27 25 -39 l25 -22 -43
-19 c-99 -44 -162 -196 -130 -312 8 -27 15 -54 17 -60 1 -5 10 -27 19 -47 8
-20 18 -53 21 -73 3 -19 10 -53 15 -74 5 -22 7 -42 4 -45 -2 -2 3 -18 11 -35
22 -43 76 -52 118 -21 26 19 32 20 44 8 11 -10 12 -21 4 -48 -6 -19 -13 -64
-16 -100 -3 -36 -7 -76 -10 -90 -8 -49 -17 -268 -17 -425 0 -197 9 -353 29
-505 3 -25 8 -61 10 -80 2 -19 9 -60 15 -90 24 -122 27 -110 -25 -110 -31 0
-46 -4 -46 -13 0 -9 -15 -13 -48 -12 -50 2 -72 -8 -136 -62 -22 -18 -45 -33
-51 -33 -14 0 -135 -124 -135 -137 0 -5 -18 -29 -40 -54 -64 -72 -66 -79 -37
-142 28 -61 26 -70 -7 -57 -17 6 -25 4 -34 -11 -7 -10 -19 -19 -27 -19 -49 0
-108 -81 -107 -148 0 -15 -11 -53 -24 -84 -13 -32 -24 -65 -24 -74 0 -25 56
-90 90 -104 16 -7 30 -16 30 -20 0 -5 -27 -19 -60 -32 -70 -27 -73 -37 -36
-119 14 -30 27 -67 30 -83 3 -16 10 -34 16 -40 5 -5 10 -18 10 -28 0 -29 29
-78 45 -78 8 0 15 -4 15 -10 0 -5 8 -10 18 -10 10 0 22 -3 26 -7 3 -4 12 -8
19 -9 7 -1 30 -7 52 -13 23 -6 61 -13 85 -16 25 -3 62 -10 82 -16 20 -5 54
-12 76 -15 21 -3 55 -11 75 -18 48 -16 216 -19 292 -5 33 6 69 12 80 13 57 7
106 19 111 27 3 5 16 9 29 9 13 0 27 5 30 10 4 6 10 8 14 6 4 -3 31 9 61 26
30 16 75 41 99 54 87 47 242 179 266 225 12 23 21 27 65 28 28 0 54 3 58 5 4
2 23 7 43 10 69 11 191 55 215 77 13 12 24 31 24 41 0 11 5 16 10 13 6 -4 10
6 10 23 0 17 20 90 44 164 24 73 49 158 56 188 7 30 19 75 26 100 12 43 36
155 49 230 3 19 8 42 10 50 6 21 14 68 20 115 3 22 7 51 10 65 3 13 7 42 11
65 7 51 12 55 19 19 41 -198 201 -527 346 -710 111 -140 308 -298 479 -385
l65 -33 -32 -9 c-99 -29 41 -91 184 -83 114 7 206 39 218 76 3 11 13 20 20 20
24 0 113 102 144 165 41 84 46 117 46 305 0 218 -14 319 -65 472 -40 118 -157
358 -210 429 -51 69 -280 300 -290 294 -4 -2 -15 4 -25 15 -10 11 -38 30 -62
42 -24 12 -43 25 -43 29 0 13 -56 28 -128 34 -76 7 -88 9 -135 22 -16 5 -64 6
-107 2 -61 -5 -92 -14 -140 -40 -81 -43 -216 -177 -232 -230 -6 -22 -14 -39
-18 -39 -4 0 -8 37 -8 83 -1 132 -14 341 -26 412 -3 17 -7 55 -10 85 -3 30 -8
66 -10 80 -2 14 -7 48 -10 75 -3 28 -10 77 -16 110 -5 33 -10 61 -10 63 0 6
-57 24 -85 27 -16 2 -57 7 -90 10 -33 4 -78 8 -100 9 -35 2 -40 5 -41 26 0 14
4 32 8 40 4 8 19 45 32 82 28 77 100 178 124 176 42 -3 61 3 67 22 4 12 1 27
-5 35 -12 14 -6 35 9 35 5 0 21 -12 36 -27 27 -28 29 -28 144 -27 65 1 131 7
151 14 19 7 53 19 75 27 87 31 110 48 113 85 2 29 -1 36 -23 46 -14 6 -25 16
-25 22 0 5 -7 10 -15 10 -9 0 -18 7 -21 15 -4 8 -12 15 -19 15 -7 0 -18 7 -25
15 -7 9 -20 15 -29 14 -9 -1 -23 1 -31 4 -8 4 -24 8 -35 10 -11 1 -24 5 -30 9
-20 12 -81 2 -130 -20 -27 -13 -58 -24 -69 -25 -10 -1 -29 -17 -41 -37 -12
-19 -29 -41 -38 -48 -8 -7 -13 -21 -10 -32 3 -11 -4 -28 -15 -40 l-20 -21 -9
27 c-9 28 -7 35 76 249 30 78 53 111 94 132 94 49 554 270 727 350 101 47 101
46 81 88 -9 19 -20 34 -26 34 -5 -1 -46 -20 -90 -43z"/>
</g>
</svg>
