<svg width="135" height="135" fill="none" xmlns="http://www.w3.org/2000/svg"><g clip-path="url(#clip0_1:796)" fill="#fff"><path d="M47.372 115.001a1.053 1.053 0 00-1.39-.542c-7.295 3.193-17.55 1.638-26.121-3.967C8.58 103.117 2.109 90.203 2.109 75.065c0-16.95 4.894-28.743 14.15-34.101 9.476-5.483 22-3.27 29.622 1.107a1.055 1.055 0 001.05-1.83c-8.404-4.827-21.473-7.04-31.729-1.103C8.268 43.153 0 52.645 0 75.065c0 15.863 6.818 29.42 18.706 37.192 5.953 3.893 12.704 5.938 18.878 5.938 3.32 0 6.473-.591 9.246-1.804.533-.235.776-.857.542-1.39z"/><path d="M65.203 113.742a1.056 1.056 0 00-1.468-.266c-4.13 2.857-12.622 2.853-16.898.94a1.055 1.055 0 00-.861 1.926c2.227.995 5.295 1.543 8.44 1.543 3.87 0 7.857-.831 10.52-2.674.48-.332.598-.989.267-1.469zM77.61 39.093c-10.253-5.937-23.324-3.724-31.73 1.103a1.055 1.055 0 001.051 1.83c7.624-4.38 20.145-6.596 29.623-1.108 9.254 5.359 14.15 17.151 14.15 34.101 0 2.946-.236 5.826-.701 8.561a1.052 1.052 0 001.038 1.232c.507 0 .951-.364 1.038-.877.486-2.854.733-5.853.733-8.916 0-22.42-8.268-31.912-15.202-35.926z"/><path d="M46.406 114.679c-.583 0-1.054.472-1.054 1.055v1.337a1.054 1.054 0 102.109 0v-1.337c0-.583-.472-1.055-1.055-1.055zM43.263 115.738c-.583 0-1.055.472-1.055 1.055v.311a1.054 1.054 0 102.11 0v-.311c0-.583-.472-1.055-1.055-1.055zM49.591 115.738c-.583 0-1.055.472-1.055 1.055v.311a1.054 1.054 0 102.11 0v-.311c0-.583-.472-1.055-1.055-1.055zM35.37 8.615a1.054 1.054 0 10-1.17 1.755c.12.082 12.144 8.318 11.153 26.803-.031.582.415 1.078.997 1.11l.057.001c.556 0 1.022-.435 1.053-.998C48.514 17.612 35.907 8.973 35.37 8.615zM23.156 45.416a1.05 1.05 0 00-1.359-.615C4.407 51.354 8.295 78.54 8.47 79.695a1.056 1.056 0 002.087-.315c-.04-.266-3.826-26.648 11.985-32.606.544-.205.82-.814.615-1.358zM78.624 13.643c-.886-1.841-4.18-2.776-9.791-2.776-5.495 0-11.46.95-14.184 2.258-5.39 2.59-7.67 9.081-5.084 14.471a10.91 10.91 0 009.785 6.155c1.63 0 3.207-.36 4.687-1.07 4.57-2.195 16.73-14.571 14.587-19.038zm-15.5 17.136a8.651 8.651 0 01-3.774.863 8.79 8.79 0 01-7.884-4.959c-2.082-4.342-.245-9.571 4.096-11.657 2.434-1.168 8.139-2.05 13.27-2.05 5.64 0 7.629 1.035 7.892 1.58 1.13 2.356-8.402 13.727-13.6 16.223z"/><path d="M68.73 18.615a1.055 1.055 0 00-1.288-.75c-.41.106-10.06 2.685-13.816 6.692a1.054 1.054 0 101.538 1.442c3.342-3.564 12.722-6.07 12.815-6.095.564-.149.9-.726.751-1.289zM133.945 86.485H60.117a1.054 1.054 0 100 2.11h73.828a1.054 1.054 0 100-2.11z"/><path d="M133.945 87.54c-.583 0-1.054.471-1.054 1.054 0 19.774-16.087 35.86-35.86 35.86s-35.86-16.086-35.86-35.86a1.054 1.054 0 10-2.109 0c0 20.938 17.032 37.969 37.97 37.969 20.936 0 37.968-17.031 37.968-37.969 0-.583-.472-1.054-1.055-1.054z"/><path d="M110.097 90.787a1.056 1.056 0 00-1.378.566 12.63 12.63 0 01-11.688 7.788c-5.1 0-9.678-3.034-11.663-7.73a1.054 1.054 0 10-1.94.822 14.74 14.74 0 0013.603 9.018 14.727 14.727 0 0013.633-9.087 1.05 1.05 0 00-.567-1.377z"/><path d="M129.677 90.71c-.572-.076-1.096.367-1.149.948-1.566 16.291-15.108 28.577-31.497 28.577-16.393 0-29.932-12.286-31.495-28.58-.056-.579-.566-1.026-1.15-.947-.58.055-1.005.57-.95 1.15 1.668 17.381 16.11 30.486 33.595 30.486 17.481 0 31.925-13.105 33.594-30.485a1.051 1.051 0 00-.948-1.149zM60.117 86.485c-.583 0-1.054.472-1.054 1.055v1.054a1.054 1.054 0 102.11 0V87.54c0-.584-.473-1.055-1.056-1.055zM133.945 86.485c-.583 0-1.054.472-1.054 1.055v1.054a1.053 1.053 0 102.109 0V87.54c0-.584-.472-1.055-1.055-1.055z"/><path d="M93.929 92.813h-.02c-.581 0-1.043.472-1.043 1.055s.482 1.054 1.063 1.054c.585 0 1.055-.471 1.055-1.054 0-.583-.47-1.055-1.055-1.055zM102.366 90.704h-.02c-.581 0-1.042.471-1.042 1.054 0 .583.482 1.055 1.062 1.055.586 0 1.055-.472 1.055-1.055s-.469-1.054-1.055-1.054z"/></g><defs><clipPath id="clip0_1:796"><path fill="#fff" d="M0 0h135v135H0z"/></clipPath></defs></svg>