<svg width="120" height="120" fill="none" xmlns="http://www.w3.org/2000/svg"><g clip-path="url(#clip0_1:934)" fill="#fff"><path d="M119.887 29.613c-.519-.95-3.216-5.714-5.47-6.229-.553-.125-1.084-.026-1.527.29-1.961 1.41-3.861 3.833-3.942 3.936a.937.937 0 101.479 1.153c.017-.023 1.811-2.31 3.529-3.557h.014c.672 0 2.56 2.298 4.029 4.874-1.689 3.311-9.319 18.788-6.979 23.696 3.708 7.78.262 14.852-3.284 19.415-10.758 13.846-38.702 25.561-65.092 20.345-14.306-2.83-32.895-11.83-40.595-38.572l6.066-3.065c8.079 11.948 21.971 18.893 39.229 19.58 20.983.829 42.832-7.997 53.194-21.529l11.718-17.492a.937.937 0 10-1.556-1.044L99.016 48.858c-9.981 13.03-31.187 21.557-51.597 20.747-16.967-.675-30.531-7.577-38.194-19.428a.934.934 0 00-1.21-.328l-7.5 3.789a.935.935 0 00-.48 1.087c7.82 28.24 27.29 37.694 42.246 40.65 4.479.885 9.002 1.293 13.484 1.293 22.628 0 44.187-10.404 53.452-22.327 5.548-7.141 6.756-14.53 3.495-21.372-1.563-3.278 3.576-15.526 7.182-22.476a.94.94 0 00-.007-.88z"/><path d="M116.86 34.886c-3.386-2.07-6.812-5.178-6.312-6.326a.94.94 0 00-.487-1.233.936.936 0 00-1.234.486c-1.388 3.194 5.048 7.446 7.055 8.674a.94.94 0 00.978-1.6zM102.576 53.583a.938.938 0 00-1.242.465c-4.252 9.354-22.894 20.99-43.866 23.407C37.976 79.703 21.39 73.32 10.743 59.49a.939.939 0 00-1.487 1.145c9.619 12.491 23.868 19.14 40.673 19.14 2.529 0 5.116-.153 7.753-.456 17.44-2.009 39.829-12.33 45.359-24.493a.939.939 0 00-.465-1.242z"/><path d="M97.304 47.614a.935.935 0 00-1.315-.169c-.269.208-.543.41-.816.61-13.526 9.833-36.004 13.08-54.673 7.89C25.776 51.85 14.889 43.021 9.844 31.081a.936.936 0 00-1.135-.532L.667 32.982a.937.937 0 00-.663.987c.522 5.398 1.59 10.49 3.179 15.136a.937.937 0 101.772-.606C3.49 44.209 2.48 39.522 1.95 34.553l6.504-1.967C13.862 44.67 25.03 53.59 39.998 57.75c6.254 1.74 12.834 2.581 19.352 2.581 13.782 0 27.3-3.763 36.929-10.762.287-.212.576-.423.856-.64a.936.936 0 00.169-1.315z"/><path d="M47.976 65.907C36.04 63.805 19.45 57.311 8.178 38.303a.936.936 0 10-1.611.956C18.2 58.879 35.329 65.583 47.65 67.753a.939.939 0 001.086-.76.938.938 0 00-.76-1.086z"/></g><defs><clipPath id="clip0_1:934"><path fill="#fff" d="M0 0h120v120H0z"/></clipPath></defs></svg>