<svg width="129" height="129" fill="none" xmlns="http://www.w3.org/2000/svg"><path d="M32.691 78.905c-2.16 0-4.208.254-5.851.459-1.086.135-2.023.252-2.655.252-.632 0-1.57-.117-2.655-.252-1.646-.205-3.69-.459-5.852-.459C5.275 78.905 0 85.246 0 97.755c0 13.335 10.848 24.184 24.185 24.184 13.336 0 24.184-10.849 24.184-24.185 0-12.508-5.274-18.849-15.678-18.849zm-8.506 41.019c-12.225 0-22.17-9.945-22.17-22.17 0-15.088 7.798-16.833 13.663-16.833 2.035 0 4.013.246 5.602.443 1.153.143 2.147.267 2.905.267.757 0 1.751-.124 2.902-.267 1.59-.197 3.569-.443 5.604-.443 5.865 0 13.663 1.745 13.663 16.833 0 12.224-9.945 22.17-22.17 22.17z" fill="#fff"/><path d="M24.185 115.539c-9.967 0-18.076-8.109-18.076-18.076a1.007 1.007 0 10-2.015 0c0 11.079 9.012 20.091 20.09 20.091a1.008 1.008 0 000-2.015zM93.153 78.905c-2.16 0-4.206.254-5.852.459-1.084.135-2.023.252-2.654.252-.632 0-1.571-.117-2.656-.252-1.645-.205-3.69-.459-5.851-.459-10.404 0-15.678 6.341-15.678 18.85 0 13.335 10.848 24.184 24.184 24.184 13.337 0 24.185-10.849 24.185-24.185 0-12.508-5.274-18.849-15.678-18.849zm-8.507 41.019c-12.224 0-22.17-9.945-22.17-22.17 0-15.088 7.799-16.833 13.664-16.833 2.035 0 4.013.246 5.601.443 1.153.143 2.147.267 2.905.267s1.752-.124 2.905-.267c1.588-.197 3.566-.443 5.602-.443 5.865 0 13.662 1.745 13.662 16.833 0 12.224-9.944 22.17-22.169 22.17z" fill="#fff"/><path d="M84.646 115.539c-9.966 0-18.075-8.109-18.075-18.076a1.007 1.007 0 10-2.016 0c0 11.079 9.012 20.091 20.091 20.091a1.007 1.007 0 100-2.015zM76.071 7.782a1.006 1.006 0 00-1.254-.679c-.515.154-51.64 15.949-51.64 69.49a1.007 1.007 0 102.015 0c0-52.014 49.698-67.409 50.2-67.557.534-.16.837-.72.679-1.254z" fill="#fff"/><path d="M82.995 62.173c-3.527-10.39-12.152-24.757-33.207-34.196a1.006 1.006 0 10-.822 1.839c20.392 9.142 28.723 22.994 32.12 33.005 3.34 9.832 2.566 17.618 2.558 17.696a1.008 1.008 0 002.004.215c.035-.335.838-8.282-2.653-18.559z" fill="#fff"/><path d="M75.632 57.897c-3.738-.205-6.627-.563-8.359-1.037C57.42 54.158 51.12 44.51 52.62 34.418a1.007 1.007 0 00-.849-1.146 1.02 1.02 0 00-1.144.849c-1.65 11.1 5.277 21.712 16.116 24.683 1.893.518 4.848.89 8.78 1.104.02.002.037.002.055.002a1.008 1.008 0 00.055-2.013zM78.504 15.92c-9.46-2.59-19.659 1.42-24.803 9.758a1.01 1.01 0 00.329 1.388 1.01 1.01 0 001.387-.329c4.678-7.585 13.944-11.232 22.555-8.872 12.287 3.37 49.468 30.468 49.035 34.27-.864 2.186-20.144 5.799-41.361 5.955a1.007 1.007 0 00.008 2.015h.008c13.96-.103 41.919-2.456 43.287-7.431 1.699-6.21-39.78-33.83-50.445-36.754z" fill="#fff"/><path d="M108.288 45.691c-.5-.258-12.511-6.389-36.576-10.4a1.007 1.007 0 10-.33 1.988c23.711 3.952 35.859 10.14 35.979 10.202a1.011 1.011 0 001.358-.431 1.008 1.008 0 00-.431-1.359z" fill="#fff"/></svg>