<svg width="119" height="119" fill="none" xmlns="http://www.w3.org/2000/svg"><g clip-path="url(#clip0_1:853)" fill="#fff"><path d="M58.57 42.773c-17.38 0-30.676 2.806-30.676 38.114C27.894 119 42.111 119 58.571 119h1.54c7.43 0 15.113-.009 20.614-5.104 5.816-5.383 8.523-15.872 8.523-33.01 0-35.307-13.296-38.113-30.677-38.113zm20.893 69.758c-4.97 4.601-12.279 4.61-19.353 4.61h-1.539c-16.101 0-28.818 0-28.818-36.254 0-36.255 14.65-36.255 28.818-36.255 14.167 0 28.817 0 28.817 36.255 0 16.583-2.518 26.638-7.925 31.644z"/><path d="M51.34 46.59a.93.93 0 00-1.314 0L32.582 64.031a.93.93 0 101.314 1.315l17.445-17.443a.93.93 0 000-1.315zM67.119 46.588a.93.93 0 00-1.315 0l-33.92 33.917A.93.93 0 1033.2 81.82l33.92-33.918a.93.93 0 000-1.314zM76.89 52.594a.93.93 0 00-1.314 0L33.39 94.78a.93.93 0 101.315 1.314L76.89 53.908a.93.93 0 000-1.314zM82.893 62.364a.93.93 0 00-1.315 0l-43.62 43.621a.93.93 0 001.314 1.315l43.62-43.622a.93.93 0 000-1.314zM85.003 76.033a.93.93 0 00-1.315 0l-36.503 36.5a.929.929 0 101.314 1.314l36.503-36.5a.93.93 0 000-1.314zM85.038 91.77a.93.93 0 00-1.314 0l-21.925 21.925a.929.929 0 101.314 1.314l21.925-21.925a.93.93 0 000-1.315z"/><path d="M84.552 64.021L67.272 46.74a.93.93 0 10-1.315 1.314l17.28 17.282a.927.927 0 001.315 0 .93.93 0 000-1.315zM85.119 80.367L51.34 46.59a.93.93 0 10-1.315 1.315l33.778 33.778a.927.927 0 001.315 0 .93.93 0 000-1.315zM82.893 93.917L41.497 52.521a.93.93 0 10-1.315 1.315l41.396 41.396a.927.927 0 001.315 0 .93.93 0 000-1.315zM79.316 106.116L35.565 62.364a.93.93 0 00-1.315 1.314l43.751 43.753a.929.929 0 101.315-1.315zM70.013 112.587L33.457 76.033a.93.93 0 10-1.315 1.315l36.556 36.554a.929.929 0 101.315-1.315zM55.342 113.695L33.428 91.778a.93.93 0 10-1.315 1.315l21.915 21.916c.181.182.42.272.657.272a.928.928 0 00.657-1.586zM91.107 27.9c-16.88 0-21.152 11.288-21.326 11.769a.931.931 0 001.748.634c.158-.43 4.056-10.544 19.578-10.544a.93.93 0 100-1.86z"/><path d="M91.987 28.534a.93.93 0 00-1.174-.587c-.478.16-11.71 4.028-13.638 15.603a.928.928 0 101.834.305c1.742-10.452 12.287-14.11 12.392-14.145a.93.93 0 00.586-1.176zM59.93 28.006a.934.934 0 00-.846-.008c-.325.162-7.95 4.066-7.95 11.986a.929.929 0 101.86 0c0-5.767 4.992-9.185 6.5-10.085 1.506.927 6.513 4.431 6.513 10.085a.929.929 0 101.86 0c0-7.734-7.612-11.809-7.936-11.978z"/><path d="M60.069 16.939a.926.926 0 00-1.126-.009c-.32.239-7.809 5.946-7.809 13.758a.929.929 0 101.86 0c0-5.707 4.821-10.36 6.5-11.805 1.673 1.477 6.513 6.229 6.513 11.805a.929.929 0 101.86 0c0-7.63-7.48-13.503-7.798-13.75z"/><path d="M60.254.397c-.176-.243-.427-.449-.754-.385a.927.927 0 00-.748.378c-.312.422-7.618 10.439-7.618 19.143a.929.929 0 101.86 0c0-6.504 4.642-14.148 6.5-16.945 1.854 2.83 6.513 10.578 6.513 16.945a.929.929 0 101.86 0c0-8.502-7.303-18.706-7.613-19.136zM90.17 17.559a.944.944 0 00-1.039-.807c-15.278 1.91-19.198 13.164-19.358 13.642a.93.93 0 001.765.588c.034-.106 3.696-10.62 17.825-12.386a.93.93 0 00.806-1.037z"/><path d="M90.137 17.411a.925.925 0 00-1.151-.63c-.276.082-6.822 2.077-9.899 9.847a.93.93 0 001.729.685c2.73-6.895 8.635-8.73 8.695-8.747a.93.93 0 00.626-1.155zM86.103 8.083a.933.933 0 00-.876-.635c-.01.015-11.565.03-15.454 11.794a.929.929 0 101.765.582c2.276-6.886 7.317-9.265 10.605-10.085-4.953 4.557-4.995 7.599-4.98 7.974.021.505.524.887.947.88a.94.94 0 00.912-.938c0-.034.085-3.425 6.763-8.54a.93.93 0 00.318-1.032zM49.219 39.668c-.173-.48-4.443-11.769-21.325-11.769a.93.93 0 100 1.86c15.524 0 19.42 10.113 19.578 10.543a.93.93 0 001.191.554.928.928 0 00.556-1.188z"/><path d="M41.825 43.55c-1.93-11.574-13.161-15.444-13.637-15.602a.929.929 0 10-.588 1.763c.105.035 10.645 3.663 12.392 14.144a.928.928 0 001.069.765.93.93 0 00.764-1.07zM49.225 30.394c-.157-.478-4.077-11.732-19.357-13.642a.93.93 0 00-.23 1.845c14.075 1.759 17.68 11.954 17.825 12.387a.933.933 0 001.178.585.928.928 0 00.584-1.175z"/><path d="M39.914 26.627c-3.078-7.77-9.623-9.764-9.9-9.846a.93.93 0 00-.524 1.784c.058.017 5.964 1.852 8.695 8.747a.928.928 0 001.206.522.93.93 0 00.523-1.207zM49.227 19.242C45.338 7.478 33.955 7.44 33.775 7.448a.93.93 0 00-.557 1.668c6.608 5.063 6.76 8.438 6.761 8.537a.93.93 0 00.89.95c.508.038.945-.377.967-.89.017-.374-.025-3.4-4.936-7.936 3.293.853 8.319 3.262 10.563 10.047a.928.928 0 101.764-.582z"/></g><defs><clipPath id="clip0_1:853"><path fill="#fff" d="M0 0h119v119H0z"/></clipPath></defs></svg>