<?xml version="1.0" encoding="utf-8"?><svg viewBox="0 0 576 512" xmlns="http://www.w3.org/2000/svg" xmlns:xlink="http://www.w3.org/1999/xlink"><style>:root>svg{display:none}:root>svg:target{display:block}</style><svg fill="none" viewBox="0 0 135 135" id="apple" xmlns="http://www.w3.org/2000/svg"><g clip-path="url(#aclip0_1:796)" fill="#fff"><path d="M47.372 115.001a1.053 1.053 0 00-1.39-.542c-7.295 3.193-17.55 1.638-26.121-3.967C8.58 103.117 2.109 90.203 2.109 75.065c0-16.95 4.894-28.743 14.15-34.101 9.476-5.483 22-3.27 29.622 1.107a1.055 1.055 0 001.05-1.83c-8.404-4.827-21.473-7.04-31.729-1.103C8.268 43.153 0 52.645 0 75.065c0 15.863 6.818 29.42 18.706 37.192 5.953 3.893 12.704 5.938 18.878 5.938 3.32 0 6.473-.591 9.246-1.804.533-.235.776-.857.542-1.39z"/><path d="M65.203 113.742a1.056 1.056 0 00-1.468-.266c-4.13 2.857-12.622 2.853-16.898.94a1.055 1.055 0 00-.861 1.926c2.227.995 5.295 1.543 8.44 1.543 3.87 0 7.857-.831 10.52-2.674.48-.332.598-.989.267-1.469zM77.61 39.093c-10.253-5.937-23.324-3.724-31.73 1.103a1.055 1.055 0 001.051 1.83c7.624-4.38 20.145-6.596 29.623-1.108 9.254 5.359 14.15 17.151 14.15 34.101 0 2.946-.236 5.826-.701 8.561a1.052 1.052 0 001.038 1.232c.507 0 .951-.364 1.038-.877.486-2.854.733-5.853.733-8.916 0-22.42-8.268-31.912-15.202-35.926z"/><path d="M46.406 114.679c-.583 0-1.054.472-1.054 1.055v1.337a1.054 1.054 0 102.109 0v-1.337c0-.583-.472-1.055-1.055-1.055zM43.263 115.738c-.583 0-1.055.472-1.055 1.055v.311a1.054 1.054 0 102.11 0v-.311c0-.583-.472-1.055-1.055-1.055zM49.591 115.738c-.583 0-1.055.472-1.055 1.055v.311a1.054 1.054 0 102.11 0v-.311c0-.583-.472-1.055-1.055-1.055zM35.37 8.615a1.054 1.054 0 10-1.17 1.755c.12.082 12.144 8.318 11.153 26.803-.031.582.415 1.078.997 1.11l.057.001c.556 0 1.022-.435 1.053-.998C48.514 17.612 35.907 8.973 35.37 8.615zM23.156 45.416a1.05 1.05 0 00-1.359-.615C4.407 51.354 8.295 78.54 8.47 79.695a1.056 1.056 0 002.087-.315c-.04-.266-3.826-26.648 11.985-32.606.544-.205.82-.814.615-1.358zM78.624 13.643c-.886-1.841-4.18-2.776-9.791-2.776-5.495 0-11.46.95-14.184 2.258-5.39 2.59-7.67 9.081-5.084 14.471a10.91 10.91 0 009.785 6.155c1.63 0 3.207-.36 4.687-1.07 4.57-2.195 16.73-14.571 14.587-19.038zm-15.5 17.136a8.651 8.651 0 01-3.774.863 8.79 8.79 0 01-7.884-4.959c-2.082-4.342-.245-9.571 4.096-11.657 2.434-1.168 8.139-2.05 13.27-2.05 5.64 0 7.629 1.035 7.892 1.58 1.13 2.356-8.402 13.727-13.6 16.223z"/><path d="M68.73 18.615a1.055 1.055 0 00-1.288-.75c-.41.106-10.06 2.685-13.816 6.692a1.054 1.054 0 101.538 1.442c3.342-3.564 12.722-6.07 12.815-6.095.564-.149.9-.726.751-1.289zM133.945 86.485H60.117a1.054 1.054 0 100 2.11h73.828a1.054 1.054 0 100-2.11z"/><path d="M133.945 87.54c-.583 0-1.054.471-1.054 1.054 0 19.774-16.087 35.86-35.86 35.86s-35.86-16.086-35.86-35.86a1.054 1.054 0 10-2.109 0c0 20.938 17.032 37.969 37.97 37.969 20.936 0 37.968-17.031 37.968-37.969 0-.583-.472-1.054-1.055-1.054z"/><path d="M110.097 90.787a1.056 1.056 0 00-1.378.566 12.63 12.63 0 01-11.688 7.788c-5.1 0-9.678-3.034-11.663-7.73a1.054 1.054 0 10-1.94.822 14.74 14.74 0 0013.603 9.018 14.727 14.727 0 0013.633-9.087 1.05 1.05 0 00-.567-1.377z"/><path d="M129.677 90.71c-.572-.076-1.096.367-1.149.948-1.566 16.291-15.108 28.577-31.497 28.577-16.393 0-29.932-12.286-31.495-28.58-.056-.579-.566-1.026-1.15-.947-.58.055-1.005.57-.95 1.15 1.668 17.381 16.11 30.486 33.595 30.486 17.481 0 31.925-13.105 33.594-30.485a1.051 1.051 0 00-.948-1.149zM60.117 86.485c-.583 0-1.054.472-1.054 1.055v1.054a1.054 1.054 0 102.11 0V87.54c0-.584-.473-1.055-1.056-1.055zM133.945 86.485c-.583 0-1.054.472-1.054 1.055v1.054a1.053 1.053 0 102.109 0V87.54c0-.584-.472-1.055-1.055-1.055z"/><path d="M93.929 92.813h-.02c-.581 0-1.043.472-1.043 1.055s.482 1.054 1.063 1.054c.585 0 1.055-.471 1.055-1.054 0-.583-.47-1.055-1.055-1.055zM102.366 90.704h-.02c-.581 0-1.042.471-1.042 1.054 0 .583.482 1.055 1.062 1.055.586 0 1.055-.472 1.055-1.055s-.469-1.054-1.055-1.054z"/></g><defs><clipPath id="aclip0_1:796"><path fill="#fff" d="M0 0h135v135H0z"/></clipPath></defs></svg><svg aria-hidden="true" data-prefix="fas" data-icon="share" class="bsvg-inline--fa bfa-share bfa-w-16" viewBox="0 0 512 512" id="arrow" xmlns="http://www.w3.org/2000/svg"><path fill="currentColor" d="M503.691 189.836L327.687 37.851C312.281 24.546 288 35.347 288 56.015v80.053C127.371 137.907 0 170.1 0 322.326c0 61.441 39.581 122.309 83.333 154.132 13.653 9.931 33.111-2.533 28.077-18.631C66.066 312.814 132.917 274.316 288 272.085V360c0 20.7 24.3 31.453 39.687 18.164l176.004-152c11.071-9.562 11.086-26.753 0-36.328z"/></svg><svg fill="none" viewBox="0 0 120 120" id="banana" xmlns="http://www.w3.org/2000/svg"><g clip-path="url(#cclip0_1:934)" fill="#fff"><path d="M119.887 29.613c-.519-.95-3.216-5.714-5.47-6.229-.553-.125-1.084-.026-1.527.29-1.961 1.41-3.861 3.833-3.942 3.936a.937.937 0 101.479 1.153c.017-.023 1.811-2.31 3.529-3.557h.014c.672 0 2.56 2.298 4.029 4.874-1.689 3.311-9.319 18.788-6.979 23.696 3.708 7.78.262 14.852-3.284 19.415-10.758 13.846-38.702 25.561-65.092 20.345-14.306-2.83-32.895-11.83-40.595-38.572l6.066-3.065c8.079 11.948 21.971 18.893 39.229 19.58 20.983.829 42.832-7.997 53.194-21.529l11.718-17.492a.937.937 0 10-1.556-1.044L99.016 48.858c-9.981 13.03-31.187 21.557-51.597 20.747-16.967-.675-30.531-7.577-38.194-19.428a.934.934 0 00-1.21-.328l-7.5 3.789a.935.935 0 00-.48 1.087c7.82 28.24 27.29 37.694 42.246 40.65 4.479.885 9.002 1.293 13.484 1.293 22.628 0 44.187-10.404 53.452-22.327 5.548-7.141 6.756-14.53 3.495-21.372-1.563-3.278 3.576-15.526 7.182-22.476a.94.94 0 00-.007-.88z"/><path d="M116.86 34.886c-3.386-2.07-6.812-5.178-6.312-6.326a.94.94 0 00-.487-1.233.936.936 0 00-1.234.486c-1.388 3.194 5.048 7.446 7.055 8.674a.94.94 0 00.978-1.6zM102.576 53.583a.938.938 0 00-1.242.465c-4.252 9.354-22.894 20.99-43.866 23.407C37.976 79.703 21.39 73.32 10.743 59.49a.939.939 0 00-1.487 1.145c9.619 12.491 23.868 19.14 40.673 19.14 2.529 0 5.116-.153 7.753-.456 17.44-2.009 39.829-12.33 45.359-24.493a.939.939 0 00-.465-1.242z"/><path d="M97.304 47.614a.935.935 0 00-1.315-.169c-.269.208-.543.41-.816.61-13.526 9.833-36.004 13.08-54.673 7.89C25.776 51.85 14.889 43.021 9.844 31.081a.936.936 0 00-1.135-.532L.667 32.982a.937.937 0 00-.663.987c.522 5.398 1.59 10.49 3.179 15.136a.937.937 0 101.772-.606C3.49 44.209 2.48 39.522 1.95 34.553l6.504-1.967C13.862 44.67 25.03 53.59 39.998 57.75c6.254 1.74 12.834 2.581 19.352 2.581 13.782 0 27.3-3.763 36.929-10.762.287-.212.576-.423.856-.64a.936.936 0 00.169-1.315z"/><path d="M47.976 65.907C36.04 63.805 19.45 57.311 8.178 38.303a.936.936 0 10-1.611.956C18.2 58.879 35.329 65.583 47.65 67.753a.939.939 0 001.086-.76.938.938 0 00-.76-1.086z"/></g><defs><clipPath id="cclip0_1:934"><path fill="#fff" d="M0 0h120v120H0z"/></clipPath></defs></svg><svg fill="none" viewBox="0 0 129 129" id="cherry" xmlns="http://www.w3.org/2000/svg"><path d="M32.691 78.905c-2.16 0-4.208.254-5.851.459-1.086.135-2.023.252-2.655.252-.632 0-1.57-.117-2.655-.252-1.646-.205-3.69-.459-5.852-.459C5.275 78.905 0 85.246 0 97.755c0 13.335 10.848 24.184 24.185 24.184 13.336 0 24.184-10.849 24.184-24.185 0-12.508-5.274-18.849-15.678-18.849zm-8.506 41.019c-12.225 0-22.17-9.945-22.17-22.17 0-15.088 7.798-16.833 13.663-16.833 2.035 0 4.013.246 5.602.443 1.153.143 2.147.267 2.905.267.757 0 1.751-.124 2.902-.267 1.59-.197 3.569-.443 5.604-.443 5.865 0 13.663 1.745 13.663 16.833 0 12.224-9.945 22.17-22.17 22.17z" fill="#fff"/><path d="M24.185 115.539c-9.967 0-18.076-8.109-18.076-18.076a1.007 1.007 0 10-2.015 0c0 11.079 9.012 20.091 20.09 20.091a1.008 1.008 0 000-2.015zM93.153 78.905c-2.16 0-4.206.254-5.852.459-1.084.135-2.023.252-2.654.252-.632 0-1.571-.117-2.656-.252-1.645-.205-3.69-.459-5.851-.459-10.404 0-15.678 6.341-15.678 18.85 0 13.335 10.848 24.184 24.184 24.184 13.337 0 24.185-10.849 24.185-24.185 0-12.508-5.274-18.849-15.678-18.849zm-8.507 41.019c-12.224 0-22.17-9.945-22.17-22.17 0-15.088 7.799-16.833 13.664-16.833 2.035 0 4.013.246 5.601.443 1.153.143 2.147.267 2.905.267s1.752-.124 2.905-.267c1.588-.197 3.566-.443 5.602-.443 5.865 0 13.662 1.745 13.662 16.833 0 12.224-9.944 22.17-22.169 22.17z" fill="#fff"/><path d="M84.646 115.539c-9.966 0-18.075-8.109-18.075-18.076a1.007 1.007 0 10-2.016 0c0 11.079 9.012 20.091 20.091 20.091a1.007 1.007 0 100-2.015zM76.071 7.782a1.006 1.006 0 00-1.254-.679c-.515.154-51.64 15.949-51.64 69.49a1.007 1.007 0 102.015 0c0-52.014 49.698-67.409 50.2-67.557.534-.16.837-.72.679-1.254z" fill="#fff"/><path d="M82.995 62.173c-3.527-10.39-12.152-24.757-33.207-34.196a1.006 1.006 0 10-.822 1.839c20.392 9.142 28.723 22.994 32.12 33.005 3.34 9.832 2.566 17.618 2.558 17.696a1.008 1.008 0 002.004.215c.035-.335.838-8.282-2.653-18.559z" fill="#fff"/><path d="M75.632 57.897c-3.738-.205-6.627-.563-8.359-1.037C57.42 54.158 51.12 44.51 52.62 34.418a1.007 1.007 0 00-.849-1.146 1.02 1.02 0 00-1.144.849c-1.65 11.1 5.277 21.712 16.116 24.683 1.893.518 4.848.89 8.78 1.104.02.002.037.002.055.002a1.008 1.008 0 00.055-2.013zM78.504 15.92c-9.46-2.59-19.659 1.42-24.803 9.758a1.01 1.01 0 00.329 1.388 1.01 1.01 0 001.387-.329c4.678-7.585 13.944-11.232 22.555-8.872 12.287 3.37 49.468 30.468 49.035 34.27-.864 2.186-20.144 5.799-41.361 5.955a1.007 1.007 0 00.008 2.015h.008c13.96-.103 41.919-2.456 43.287-7.431 1.699-6.21-39.78-33.83-50.445-36.754z" fill="#fff"/><path d="M108.288 45.691c-.5-.258-12.511-6.389-36.576-10.4a1.007 1.007 0 10-.33 1.988c23.711 3.952 35.859 10.14 35.979 10.202a1.011 1.011 0 001.358-.431 1.008 1.008 0 00-.431-1.359z" fill="#fff"/></svg><svg aria-hidden="true" data-prefix="fab" data-icon="facebook" class="esvg-inline--fa efa-facebook efa-w-16" viewBox="0 0 512 512" id="facebook" xmlns="http://www.w3.org/2000/svg"><path fill="currentColor" d="M504 256C504 119 393 8 256 8S8 119 8 256c0 123.78 90.69 226.38 209.25 245V327.69h-63V256h63v-54.64c0-62.15 37-96.48 93.67-96.48 27.14 0 55.52 4.84 55.52 4.84v61h-31.28c-30.8 0-40.41 19.12-40.41 38.73V256h68.78l-11 71.69h-57.78V501C413.31 482.38 504 379.78 504 256z"/></svg><svg viewBox="0 0 502.664 502.664" id="icon" xmlns="http://www.w3.org/2000/svg"><g fill="#010002"><path d="M153.821 358.226L0 274.337v-46.463l153.821-83.414v54.574L46.636 250.523l107.185 53.431v54.272zM180.094 387.584L282.103 115.08h32.227L212.084 387.584h-31.99zM348.843 358.226v-54.272l107.164-52.999-107.164-52.59v-53.927l153.821 83.522v46.183l-153.821 84.083z"/></g></svg><svg aria-hidden="true" data-prefix="fab" data-icon="instagram-square" class="gsvg-inline--fa gfa-instagram-square gfa-w-14" viewBox="0 0 448 512" id="instagram" xmlns="http://www.w3.org/2000/svg"><path fill="currentColor" d="M224 202.66A53.34 53.34 0 10277.36 256 53.38 53.38 0 00224 202.66zm124.71-41a54 54 0 00-30.41-30.41c-21-8.29-71-6.43-94.3-6.43s-73.25-1.93-94.31 6.43a54 54 0 00-30.41 30.41c-8.28 21-6.43 71.05-6.43 94.33s-1.85 73.27 6.47 94.34a54 54 0 0030.41 30.41c21 8.29 71 6.43 94.31 6.43s73.24 1.93 94.3-6.43a54 54 0 0030.41-30.41c8.35-21 6.43-71.05 6.43-94.33s1.92-73.26-6.43-94.33zM224 338a82 82 0 1182-82 81.9 81.9 0 01-82 82zm85.38-148.3a19.14 19.14 0 1119.13-19.14 19.1 19.1 0 01-19.09 19.18zM400 32H48A48 48 0 000 80v352a48 48 0 0048 48h352a48 48 0 0048-48V80a48 48 0 00-48-48zm-17.12 290c-1.29 25.63-7.14 48.34-25.85 67s-41.4 24.63-67 25.85c-26.41 1.49-105.59 1.49-132 0-25.63-1.29-48.26-7.15-67-25.85s-24.63-41.42-25.85-67c-1.49-26.42-1.49-105.61 0-132 1.29-25.63 7.07-48.34 25.85-67s41.47-24.56 67-25.78c26.41-1.49 105.59-1.49 132 0 25.63 1.29 48.33 7.15 67 25.85s24.63 41.42 25.85 67.05c1.49 26.32 1.49 105.44 0 131.88z"/></svg><svg aria-hidden="true" data-prefix="fas" data-icon="map-marker-alt" class="hsvg-inline--fa hfa-map-marker-alt hfa-w-12" viewBox="0 0 384 512" id="map" xmlns="http://www.w3.org/2000/svg"><path fill="currentColor" d="M172.268 501.67C26.97 291.031 0 269.413 0 192 0 85.961 85.961 0 192 0s192 85.961 192 192c0 77.413-26.97 99.031-172.268 309.67-9.535 13.774-29.93 13.773-39.464 0zM192 272c44.183 0 80-35.817 80-80s-35.817-80-80-80-80 35.817-80 80 35.817 80 80 80z"/></svg><svg aria-hidden="true" data-prefix="fas" data-icon="phone-alt" class="isvg-inline--fa ifa-phone-alt ifa-w-16" viewBox="0 0 512 512" id="phone" xmlns="http://www.w3.org/2000/svg"><path fill="currentColor" d="M497.39 361.8l-112-48a24 24 0 00-28 6.9l-49.6 60.6A370.66 370.66 0 01130.6 204.11l60.6-49.6a23.94 23.94 0 006.9-28l-48-112A24.16 24.16 0 00122.6.61l-104 24A24 24 0 000 48c0 256.5 207.9 464 464 464a24 24 0 0023.4-18.6l24-104a24.29 24.29 0 00-14.01-27.6z"/></svg><svg fill="none" viewBox="0 0 119 119" id="pineapple" xmlns="http://www.w3.org/2000/svg"><g clip-path="url(#jclip0_1:853)" fill="#fff"><path d="M58.57 42.773c-17.38 0-30.676 2.806-30.676 38.114C27.894 119 42.111 119 58.571 119h1.54c7.43 0 15.113-.009 20.614-5.104 5.816-5.383 8.523-15.872 8.523-33.01 0-35.307-13.296-38.113-30.677-38.113zm20.893 69.758c-4.97 4.601-12.279 4.61-19.353 4.61h-1.539c-16.101 0-28.818 0-28.818-36.254 0-36.255 14.65-36.255 28.818-36.255 14.167 0 28.817 0 28.817 36.255 0 16.583-2.518 26.638-7.925 31.644z"/><path d="M51.34 46.59a.93.93 0 00-1.314 0L32.582 64.031a.93.93 0 101.314 1.315l17.445-17.443a.93.93 0 000-1.315zM67.119 46.588a.93.93 0 00-1.315 0l-33.92 33.917A.93.93 0 1033.2 81.82l33.92-33.918a.93.93 0 000-1.314zM76.89 52.594a.93.93 0 00-1.314 0L33.39 94.78a.93.93 0 101.315 1.314L76.89 53.908a.93.93 0 000-1.314zM82.893 62.364a.93.93 0 00-1.315 0l-43.62 43.621a.93.93 0 001.314 1.315l43.62-43.622a.93.93 0 000-1.314zM85.003 76.033a.93.93 0 00-1.315 0l-36.503 36.5a.929.929 0 101.314 1.314l36.503-36.5a.93.93 0 000-1.314zM85.038 91.77a.93.93 0 00-1.314 0l-21.925 21.925a.929.929 0 101.314 1.314l21.925-21.925a.93.93 0 000-1.315z"/><path d="M84.552 64.021L67.272 46.74a.93.93 0 10-1.315 1.314l17.28 17.282a.927.927 0 001.315 0 .93.93 0 000-1.315zM85.119 80.367L51.34 46.59a.93.93 0 10-1.315 1.315l33.778 33.778a.927.927 0 001.315 0 .93.93 0 000-1.315zM82.893 93.917L41.497 52.521a.93.93 0 10-1.315 1.315l41.396 41.396a.927.927 0 001.315 0 .93.93 0 000-1.315zM79.316 106.116L35.565 62.364a.93.93 0 00-1.315 1.314l43.751 43.753a.929.929 0 101.315-1.315zM70.013 112.587L33.457 76.033a.93.93 0 10-1.315 1.315l36.556 36.554a.929.929 0 101.315-1.315zM55.342 113.695L33.428 91.778a.93.93 0 10-1.315 1.315l21.915 21.916c.181.182.42.272.657.272a.928.928 0 00.657-1.586zM91.107 27.9c-16.88 0-21.152 11.288-21.326 11.769a.931.931 0 001.748.634c.158-.43 4.056-10.544 19.578-10.544a.93.93 0 100-1.86z"/><path d="M91.987 28.534a.93.93 0 00-1.174-.587c-.478.16-11.71 4.028-13.638 15.603a.928.928 0 101.834.305c1.742-10.452 12.287-14.11 12.392-14.145a.93.93 0 00.586-1.176zM59.93 28.006a.934.934 0 00-.846-.008c-.325.162-7.95 4.066-7.95 11.986a.929.929 0 101.86 0c0-5.767 4.992-9.185 6.5-10.085 1.506.927 6.513 4.431 6.513 10.085a.929.929 0 101.86 0c0-7.734-7.612-11.809-7.936-11.978z"/><path d="M60.069 16.939a.926.926 0 00-1.126-.009c-.32.239-7.809 5.946-7.809 13.758a.929.929 0 101.86 0c0-5.707 4.821-10.36 6.5-11.805 1.673 1.477 6.513 6.229 6.513 11.805a.929.929 0 101.86 0c0-7.63-7.48-13.503-7.798-13.75z"/><path d="M60.254.397c-.176-.243-.427-.449-.754-.385a.927.927 0 00-.748.378c-.312.422-7.618 10.439-7.618 19.143a.929.929 0 101.86 0c0-6.504 4.642-14.148 6.5-16.945 1.854 2.83 6.513 10.578 6.513 16.945a.929.929 0 101.86 0c0-8.502-7.303-18.706-7.613-19.136zM90.17 17.559a.944.944 0 00-1.039-.807c-15.278 1.91-19.198 13.164-19.358 13.642a.93.93 0 001.765.588c.034-.106 3.696-10.62 17.825-12.386a.93.93 0 00.806-1.037z"/><path d="M90.137 17.411a.925.925 0 00-1.151-.63c-.276.082-6.822 2.077-9.899 9.847a.93.93 0 001.729.685c2.73-6.895 8.635-8.73 8.695-8.747a.93.93 0 00.626-1.155zM86.103 8.083a.933.933 0 00-.876-.635c-.01.015-11.565.03-15.454 11.794a.929.929 0 101.765.582c2.276-6.886 7.317-9.265 10.605-10.085-4.953 4.557-4.995 7.599-4.98 7.974.021.505.524.887.947.88a.94.94 0 00.912-.938c0-.034.085-3.425 6.763-8.54a.93.93 0 00.318-1.032zM49.219 39.668c-.173-.48-4.443-11.769-21.325-11.769a.93.93 0 100 1.86c15.524 0 19.42 10.113 19.578 10.543a.93.93 0 001.191.554.928.928 0 00.556-1.188z"/><path d="M41.825 43.55c-1.93-11.574-13.161-15.444-13.637-15.602a.929.929 0 10-.588 1.763c.105.035 10.645 3.663 12.392 14.144a.928.928 0 001.069.765.93.93 0 00.764-1.07zM49.225 30.394c-.157-.478-4.077-11.732-19.357-13.642a.93.93 0 00-.23 1.845c14.075 1.759 17.68 11.954 17.825 12.387a.933.933 0 001.178.585.928.928 0 00.584-1.175z"/><path d="M39.914 26.627c-3.078-7.77-9.623-9.764-9.9-9.846a.93.93 0 00-.524 1.784c.058.017 5.964 1.852 8.695 8.747a.928.928 0 001.206.522.93.93 0 00.523-1.207zM49.227 19.242C45.338 7.478 33.955 7.44 33.775 7.448a.93.93 0 00-.557 1.668c6.608 5.063 6.76 8.438 6.761 8.537a.93.93 0 00.89.95c.508.038.945-.377.967-.89.017-.374-.025-3.4-4.936-7.936 3.293.853 8.319 3.262 10.563 10.047a.928.928 0 101.764-.582z"/></g><defs><clipPath id="jclip0_1:853"><path fill="#fff" d="M0 0h119v119H0z"/></clipPath></defs></svg><svg aria-hidden="true" data-prefix="fab" data-icon="twitter" class="ksvg-inline--fa kfa-twitter kfa-w-16" viewBox="0 0 512 512" id="twitter" xmlns="http://www.w3.org/2000/svg"><path fill="currentColor" d="M459.37 151.716c.325 4.548.325 9.097.325 13.645 0 138.72-105.583 298.558-298.558 298.558-59.452 0-114.68-17.219-161.137-47.106 8.447.974 16.568 1.299 25.34 1.299 49.055 0 94.213-16.568 130.274-44.832-46.132-.975-84.792-31.188-98.112-72.772 6.498.974 12.995 1.624 19.818 1.624 9.421 0 18.843-1.3 27.614-3.573-48.081-9.747-84.143-51.98-84.143-102.985v-1.299c13.969 7.797 30.214 12.67 47.431 13.319-28.264-18.843-46.781-51.005-46.781-87.391 0-19.492 5.197-37.36 14.294-52.954 51.655 63.675 129.3 105.258 216.365 109.807-1.624-7.797-2.599-15.918-2.599-24.04 0-57.828 46.782-104.934 104.934-104.934 30.213 0 57.502 12.67 76.67 33.137 23.715-4.548 46.456-13.32 66.599-25.34-7.798 24.366-24.366 44.833-46.132 57.827 21.117-2.273 41.584-8.122 60.426-16.243-14.292 20.791-32.161 39.308-52.628 54.253z"/></svg><svg aria-hidden="true" data-prefix="fab" data-icon="youtube" class="lsvg-inline--fa lfa-youtube lfa-w-18" viewBox="0 0 576 512" id="youtube" xmlns="http://www.w3.org/2000/svg"><path fill="currentColor" d="M549.655 124.083c-6.281-23.65-24.787-42.276-48.284-48.597C458.781 64 288 64 288 64S117.22 64 74.629 75.486c-23.497 6.322-42.003 24.947-48.284 48.597-11.412 42.867-11.412 132.305-11.412 132.305s0 89.438 11.412 132.305c6.281 23.65 24.787 41.5 48.284 47.821C117.22 448 288 448 288 448s170.78 0 213.371-11.486c23.497-6.321 42.003-24.171 48.284-47.821 11.412-42.867 11.412-132.305 11.412-132.305s0-89.438-11.412-132.305zm-317.51 213.508V175.185l142.739 81.205-142.739 81.201z"/></svg></svg>